<svg width="219" height="89" viewBox="0 0 219 89" fill="none" xmlns="http://www.w3.org/2000/svg">
<path d="M73.7539 24.0664H69.3008C68.168 20.9023 66.2148 17.6992 63.4414 14.457C60.668 11.2148 57.9141 9.30078 55.1797 8.71484C54.0078 8.44141 52.3672 8.28516 50.2578 8.24609C48.1875 8.16797 46.4688 8.12891 45.1016 8.12891H33.0312V40.2383H41.5859C43.7344 40.2383 45.6875 39.9844 47.4453 39.4766C49.2031 38.9688 50.8047 37.9922 52.25 36.5469C53.1484 35.6484 54.0469 34.0664 54.9453 31.8008C55.8828 29.5352 56.4883 27.5625 56.7617 25.8828H61.2148V60.5703H56.7617C56.5273 58.9297 55.9219 56.8789 54.9453 54.418C54.0078 51.918 53.1094 50.1992 52.25 49.2617C50.9609 47.8555 49.4375 46.8984 47.6797 46.3906C45.9219 45.8438 43.8906 45.5703 41.5859 45.5703H33.0312V69.5352C33.0312 72.0352 33.207 74.0273 33.5586 75.5117C33.9492 76.957 34.6523 78.0703 35.668 78.8516C36.6445 79.5938 37.9727 80.082 39.6523 80.3164C41.3711 80.5508 43.6953 80.668 46.625 80.668C47.9922 80.668 49.6328 80.6484 51.5469 80.6094C53.4609 80.5703 55.1406 80.4531 56.5859 80.2578C58.2266 80.0625 59.75 79.7695 61.1562 79.3789C62.6016 78.9883 63.6758 78.4219 64.3789 77.6797C66.2539 75.7656 68.3633 72.8555 70.707 68.9492C73.0508 65.0039 74.5938 62.0547 75.3359 60.1016H79.6133L78.0312 86H0.0429688V81.4297C1.13672 81.3516 2.62109 81.1953 4.49609 80.9609C6.37109 80.7266 7.69922 80.4531 8.48047 80.1406C9.96484 79.5156 10.9609 78.7344 11.4688 77.7969C11.9766 76.8203 12.2305 75.5898 12.2305 74.1055V15.4531C12.2305 14.0469 12.0156 12.8945 11.5859 11.9961C11.1563 11.0586 10.1211 10.2188 8.48047 9.47656C7.46484 9.00781 6.03906 8.57813 4.20312 8.1875C2.36719 7.79687 0.980469 7.54297 0.0429688 7.42578V2.85547H73.7539V24.0664ZM113.891 76.2734C113.891 79.3594 112.738 82.0352 110.434 84.3008C108.168 86.5664 105.473 87.6992 102.348 87.6992C99.1836 87.6992 96.4492 86.5859 94.1445 84.3594C91.8789 82.0938 90.7461 79.3984 90.7461 76.2734C90.7461 73.1484 91.8789 70.4531 94.1445 68.1875C96.4492 65.8828 99.1836 64.7305 102.348 64.7305C105.473 64.7305 108.168 65.8828 110.434 68.1875C112.738 70.4922 113.891 73.1875 113.891 76.2734ZM218.598 52.1914C217.387 52.3086 216.312 52.4453 215.375 52.6016C214.438 52.7578 213.266 53.0703 211.859 53.5391C210.258 54.0469 209.203 54.8867 208.695 56.0586C208.188 57.2305 207.934 58.4609 207.934 59.75V69.418C207.934 71.3711 207.953 72.9531 207.992 74.1641C208.031 75.3359 208.09 76.8008 208.168 78.5586C204.262 80.9023 198.48 83.1094 190.824 85.1797C183.207 87.25 176.195 88.2852 169.789 88.2852C163.773 88.2852 158.129 87.3672 152.855 85.5312C147.582 83.6953 142.953 80.9414 138.969 77.2695C134.984 73.6367 131.84 69.125 129.535 63.7344C127.27 58.3438 126.137 52.1719 126.137 45.2188C126.137 38.7344 127.211 32.7383 129.359 27.2305C131.508 21.7227 134.613 16.9766 138.676 12.9922C142.66 9.04688 147.504 6 153.207 3.85156C158.949 1.70312 165.297 0.628906 172.25 0.628906C176.977 0.628906 181.352 1.21484 185.375 2.38672C189.398 3.51953 192.719 4.75 195.336 6.07812L198.969 2.85547H204.066L204.594 33.207H199.438C196.469 24.1055 192.914 17.3477 188.773 12.9336C184.633 8.51953 179.398 6.3125 173.07 6.3125C165.57 6.3125 159.77 9.59375 155.668 16.1562C151.605 22.7188 149.574 31.7617 149.574 43.2852C149.574 55.5117 151.566 65.082 155.551 71.9961C159.574 78.9102 165.258 82.3672 172.602 82.3672C176.039 82.3672 179.086 81.8594 181.742 80.8438C184.438 79.7891 186.527 78.5781 188.012 77.2109V60.3359C188.012 58.9297 187.758 57.7578 187.25 56.8203C186.742 55.8438 185.727 55.0039 184.203 54.3008C183.031 53.7539 181.566 53.3047 179.809 52.9531C178.051 52.6016 176.586 52.3477 175.414 52.1914V47.6211H218.598V52.1914Z" fill="black"/>
</svg>
